<?xml version="1.0" standalone="no"?><!DOCTYPE svg PUBLIC "-//W3C//DTD SVG 1.1//EN" "http://www.w3.org/Graphics/SVG/1.1/DTD/svg11.dtd"><svg t="1587383701597" class="icon" viewBox="0 0 1080 1024" version="1.1" xmlns="http://www.w3.org/2000/svg" p-id="5496" xmlns:xlink="http://www.w3.org/1999/xlink" width="67.5" height="64"><defs><style type="text/css"></style></defs><path d="M1058.885484 2.373178a10.807856 10.807856 0 0 1 3.811192 11.03539l-193.460625 797.392249a10.807856 10.807856 0 0 1-10.409672 8.248101 11.20604 11.20604 0 0 1-3.12859-0.455068l-386.864366-117.862515a10.807856 10.807856 0 0 1-5.119511-17.235687l385.100979-455.807112-482.201034 434.589584a10.921623 10.921623 0 0 1-10.523439 2.275338L7.508616 553.573841a10.750973 10.750973 0 0 1-1.706504-19.738559L1047.395027 1.235509a10.523439 10.523439 0 0 1 11.547341 1.137669z m-476.797106 782.943852c3.12859 1.023902 5.688345 3.413007 6.882898 6.59848a10.580322 10.580322 0 0 1-1.023902 9.38577l-106.940892 168.943857a10.807856 10.807856 0 0 1-12.002409 4.550676 10.807856 10.807856 0 0 1-7.73615-10.239022v-201.879376a10.807856 10.807856 0 0 1 4.380026-8.646285 10.523439 10.523439 0 0 1 9.499537-1.592736l106.940892 32.878636z" fill="#4A4A4A" p-id="5497"></path></svg>