<?xml version="1.0" standalone="no"?><!DOCTYPE svg PUBLIC "-//W3C//DTD SVG 1.1//EN" "http://www.w3.org/Graphics/SVG/1.1/DTD/svg11.dtd"><svg t="1587385827944" class="icon" viewBox="0 0 1152 1024" version="1.1" xmlns="http://www.w3.org/2000/svg" p-id="6864" xmlns:xlink="http://www.w3.org/1999/xlink" width="72" height="64"><defs><style type="text/css"></style></defs><path d="M128 128h896c85.312 0 128 42.688 128 128v320c0 85.312-42.688 128-128 128H128c-85.312 0-128-42.688-128-128V256c0-85.312 42.688-128 128-128z" fill="#DF2532" p-id="6865"></path><path d="M214.848 544V269.12h55.488v108.16h108.8v-108.16h55.424V544h-55.488V423.808H270.336V544h-55.488z m265.856-135.744c0-27.968 4.16-51.52 12.544-70.528 6.272-14.016 14.784-26.56 25.6-37.632 10.048-10.624 22.144-19.008 35.584-24.768 17.088-7.296 36.864-10.88 59.2-10.88 40.512 0 72.96 12.544 97.28 37.696 24.32 25.088 36.48 60.032 36.48 104.832 0 44.352-12.096 79.04-36.224 104.128-24.128 25.024-56.384 37.568-96.768 37.568-40.896 0-73.344-12.48-97.536-37.376-24.128-24.96-36.16-59.264-36.16-103.04z m57.216-1.92c0 31.168 7.168 54.784 21.568 70.784 14.336 16.064 32.64 24.128 54.72 24.128 22.144 0 40.32-8 54.464-23.872 14.208-16 21.312-39.872 21.312-71.744 0-31.488-6.912-55.04-20.736-70.464-13.824-15.552-32.192-23.296-55.04-23.296s-41.28 7.872-55.296 23.552c-14.016 15.68-20.992 39.36-20.992 70.976zM852.544 544V315.584h-81.6v-46.464h218.496v46.464h-81.408V544h-55.488z" fill="#FFFFFF" p-id="6866"></path><path d="M128 704h192l-137.408 137.344A32 32 0 0 1 128 818.752V704z" fill="#DF2532" p-id="6867"></path></svg>