<?xml version="1.0" standalone="no"?><!DOCTYPE svg PUBLIC "-//W3C//DTD SVG 1.1//EN" "http://www.w3.org/Graphics/SVG/1.1/DTD/svg11.dtd"><svg t="1587383655960" class="icon" viewBox="0 0 1024 1024" version="1.1" xmlns="http://www.w3.org/2000/svg" p-id="4003" xmlns:xlink="http://www.w3.org/1999/xlink" width="64" height="64"><defs><style type="text/css"></style></defs><path d="M902.734122 93.933369 123.721813 93.933369c-30.731932 0-55.643298 24.911366-55.643298 55.643298l0 779.01231 166.930917-166.930917L902.734122 761.65806c30.728862 0 55.643298-24.911366 55.643298-55.643298L958.37742 149.57769C958.378443 118.844735 933.462984 93.933369 902.734122 93.933369zM290.653753 483.439524c-30.732955 0-55.643298-24.911366-55.643298-55.643298 0-30.732955 24.911366-55.643298 55.643298-55.643298 30.728862 0 55.643298 24.911366 55.643298 55.643298C346.297051 458.528158 321.382615 483.439524 290.653753 483.439524zM513.227967 483.439524c-30.732955 0-55.643298-24.911366-55.643298-55.643298 0-30.732955 24.911366-55.643298 55.643298-55.643298 30.728862 0 55.643298 24.911366 55.643298 55.643298C568.872289 458.528158 543.956829 483.439524 513.227967 483.439524zM735.803205 483.439524c-30.731932 0-55.643298-24.911366-55.643298-55.643298 0-30.732955 24.911366-55.643298 55.643298-55.643298 30.728862 0 55.643298 24.911366 55.643298 55.643298C791.447527 458.528158 766.532067 483.439524 735.803205 483.439524z" p-id="4004"></path></svg>