<?xml version="1.0" standalone="no"?><!DOCTYPE svg PUBLIC "-//W3C//DTD SVG 1.1//EN" "http://www.w3.org/Graphics/SVG/1.1/DTD/svg11.dtd"><svg t="1587383419626" class="icon" viewBox="0 0 1024 1024" version="1.1" xmlns="http://www.w3.org/2000/svg" p-id="3098" xmlns:xlink="http://www.w3.org/1999/xlink" width="64" height="64"><defs><style type="text/css"></style></defs><path d="M1024 835.368421c0 17.246316-7.814737 39.612632-25.6 39.612632H768c17.785263-3.772632 26.947368-31.258947 26.947368-49.852632s-7.814737-137.701053-113.717894-188.631579a192.943158 192.943158 0 0 0-70.602106-22.905263V552.421053a113.987368 113.987368 0 0 1-32.336842-76.261053c-15.36 4.311579-20.48-17.785263-21.557894-31.797895s-11.587368-46.618947 7.275789-42.846316a350.315789 350.315789 0 0 1 0-74.913684c4.581053-47.427368 55.781053-96.202105 128-99.705263C776.084211 228.783158 803.031579 275.671579 808.421053 323.368421a367.292632 367.292632 0 0 1-5.389474 67.368421c18.863158-3.772632 10.778947 38.534737 9.701053 52.008421s-5.928421 36.109474-21.557895 31.797895a113.178947 113.178947 0 0 1-32.336842 75.991579v61.170526s15.629474 8.623158 80.842105 35.301053 45.271579 6.736842 98.896842 32.875789C1024 720.842105 1024 835.368421 1024 835.368421m-478.315789-210.189474c72.488421 29.372632 49.852632 7.545263 107.789473 36.109474 93.237895 45.271579 93.237895 169.768421 93.237895 169.768421 0 18.863158-11.587368 42.576842-30.989474 42.576842H25.6c-19.402105 0-25.6-23.713684-25.6-42.576842s0-124.496842 93.237895-170.037895c59.014737-28.564211 36.378947-5.389474 107.789473-34.762105s79.494737-52.008421 79.494737-52.008421v-49.583158a238.214737 238.214737 0 0 1-24.791579-88.926316c-16.976842 4.850526-22.635789-19.402105-23.713684-34.762105s-9.970526-61.44 10.778947-57.397895A402.593684 402.593684 0 0 1 238.484211 269.473684 146.054737 146.054737 0 0 1 377.263158 150.366316 122.88 122.88 0 0 1 509.844211 269.473684a406.635789 406.635789 0 0 1-5.928422 73.83579c20.749474-4.042105 11.587368 42.307368 10.778948 57.397894s-6.736842 39.612632-23.713684 34.762106a183.242105 183.242105 0 0 1-30.181053 89.195789v49.852632s12.395789 21.288421 84.884211 50.661052" fill="" p-id="3099"></path></svg>