<?xml version="1.0" standalone="no"?><!DOCTYPE svg PUBLIC "-//W3C//DTD SVG 1.1//EN" "http://www.w3.org/Graphics/SVG/1.1/DTD/svg11.dtd"><svg t="1587383259842" class="icon" viewBox="0 0 1024 1024" version="1.1" xmlns="http://www.w3.org/2000/svg" p-id="1161" xmlns:xlink="http://www.w3.org/1999/xlink" width="64" height="64"><defs><style type="text/css"></style></defs><path d="M956.869 582.08199999v0.299c-0.003 0.065-0.009 0.128-0.012 0.192-0.013 0.294-0.036 0.585-0.056 0.877-0.021 0.305-0.04 0.61-0.068 0.912-0.027 0.293-0.064 0.583-0.098 0.873-0.035 0.298-0.069 0.595-0.111 0.89-0.042 0.291-0.091 0.579-0.14 0.867-0.049 0.29-0.097 0.581-0.152 0.869-0.056 0.288-0.119 0.573-0.181 0.859-0.062 0.283-0.123 0.567-0.192 0.848-0.07 0.285-0.146 0.566-0.222 0.848-0.075 0.276-0.149 0.553-0.23 0.826-0.083 0.28-0.172 0.558-0.262 0.835-0.087 0.27-0.174 0.539-0.267 0.805a43.733 43.733 0 0 1-0.604 1.605c-0.109 0.27-0.223 0.537-0.339 0.804-0.111 0.255-0.222 0.51-0.338 0.762a43.555 43.555 0 0 1-0.747 1.526 37.567 37.567 0 0 1-1.699 2.923 39.036 39.036 0 0 1-0.947 1.392 31.778 31.778 0 0 1-1.01 1.343 34.902 34.902 0 0 1-1.071 1.292c-0.188 0.216-0.377 0.43-0.569 0.641-0.184 0.202-0.372 0.4-0.561 0.598-0.197 0.206-0.395 0.411-0.596 0.612a39.797 39.797 0 0 1-1.212 1.153 35.45 35.45 0 0 1-0.619 0.545c-0.214 0.185-0.428 0.37-0.646 0.549-0.213 0.176-0.43 0.346-0.648 0.517-0.221 0.174-0.443 0.348-0.669 0.516-0.223 0.166-0.449 0.327-0.676 0.488-0.229 0.162-0.457 0.325-0.689 0.482-0.232 0.157-0.468 0.307-0.704 0.458-0.235 0.151-0.469 0.302-0.708 0.447-0.241 0.147-0.487 0.286-0.732 0.427-0.241 0.138-0.481 0.278-0.725 0.411-0.251 0.136-0.506 0.265-0.76 0.395-0.246 0.126-0.49 0.253-0.74 0.374-0.26 0.125-0.525 0.242-0.788 0.361-0.25 0.113-0.499 0.228-0.752 0.335-0.27 0.114-0.544 0.219-0.817 0.327-0.253 0.1-0.505 0.202-0.761 0.296-0.28 0.102-0.564 0.195-0.848 0.291-0.256 0.086-0.509 0.176-0.768 0.256-0.291 0.09-0.586 0.17-0.88 0.253-0.256 0.072-0.511 0.149-0.769 0.216-0.304 0.078-0.611 0.145-0.918 0.215-0.255 0.058-0.507 0.122-0.764 0.174-0.319 0.065-0.643 0.118-0.965 0.174-0.249 0.044-0.496 0.093-0.747 0.132-0.342 0.052-0.689 0.091-1.034 0.133-0.236 0.029-0.469 0.065-0.707 0.089-0.388 0.039-0.78 0.064-1.171 0.09-0.199 0.014-0.396 0.035-0.596 0.045-0.593 0.03-1.19 0.046-1.791 0.046H750.028c-19.462 0-35.145-15.945-35.145-35.635v-11.089c0-19.654 15.682-35.6 35.145-35.6h171.724c18.985 0 34.365 15.059 35.116 33.978 0.022 0.55 0.031 1.103 0.028 1.66v11.052c0.001 0.379-0.016 0.76-0.027 1.141zM722.372 405.94099999c-5.028 4.265-10.768 6.309-16.452 6.309-9.193 0-18.234-5.353-23.846-15.322l-5.152-9.122c-9.194-16.279-5.821-38.418 7.339-49.617L825.25 218.41199999c5.028-4.266 10.759-6.309 16.436-6.309 9.226 0 18.305 5.399 23.974 15.432l5.154 9.124c9.008 16.168 5.784 38.417-7.416 49.578L722.372 405.94099999z m-40.336 348.543c5.611-9.988 14.673-15.348 23.865-15.348 5.69 0 11.43 2.054 16.433 6.335l141.027 119.741c13.199 11.163 16.461 33.375 7.304 49.543l-5.079 9.124c-5.633 9.987-14.688 15.346-23.9 15.346-5.702 0-11.464-2.054-16.51-6.336l-140.99-119.702c-13.123-11.199-16.496-33.375-7.339-49.58l5.189-9.123zM568.372 946.83199999c-16.311 0-35.983-14.265-44.898-20.913-55.128-40.904-167.645-105.501-245.647-163.166-0.853-0.63-1.853-3.746-2.706-4.265-9.38-5.376-13.606-20.137-64.989-20.284H108.958c-27.136 0-41.856-13.61-41.856-40.978V452.96199999c0-27.478 16.091-39.642 41.856-39.642h100.803c51.568 0 55.832-14.833 65.361-20.284 0.926-0.52 1.853-3.709 2.892-4.302 80.337-57.59 192.112-117.479 245.535-160.124 8.948-7.189 29.496-23.314 46.11-23.442h0.398c13.284 0.103 23.952 10.641 23.968 44.505V900.88799999c0.001 35.319-11.575 45.944-25.653 45.944z" p-id="1162"></path></svg>