<?xml version="1.0" standalone="no"?><!DOCTYPE svg PUBLIC "-//W3C//DTD SVG 1.1//EN" "http://www.w3.org/Graphics/SVG/1.1/DTD/svg11.dtd"><svg t="1587383332763" class="icon" viewBox="0 0 1024 1024" version="1.1" xmlns="http://www.w3.org/2000/svg" p-id="1950" xmlns:xlink="http://www.w3.org/1999/xlink" width="64" height="64"><defs><style type="text/css"></style></defs><path d="M880.672 899.013H143.33c-42.866 0-77.617-34.654-77.617-77.403V299.141c0-42.75 34.75-77.403 77.617-77.403h164.933l48.507-77.402c0-10.69 28.093-19.351 38.809-19.351h232.845c10.714 0 38.807 8.662 38.807 19.351l48.51 77.402H880.673c42.866 0 77.614 34.653 77.614 77.403v522.47c0 42.748-34.748 77.402-77.614 77.402z m-368.67-599.872c-139.313 0-252.25 112.627-252.25 251.56 0 138.935 112.937 251.559 252.25 251.559 139.308 0 252.241-112.621 252.247-251.546v-0.023c-0.006-138.929-112.939-251.55-252.247-251.55z m0 425.717c-96.448 0-174.634-77.969-174.634-174.156 0-96.183 78.186-174.157 174.634-174.157s174.632 77.974 174.632 174.157c0 96.187-78.185 174.156-174.632 174.156z" fill="" p-id="1951"></path></svg>