<?xml version="1.0" standalone="no"?><!DOCTYPE svg PUBLIC "-//W3C//DTD SVG 1.1//EN" "http://www.w3.org/Graphics/SVG/1.1/DTD/svg11.dtd"><svg t="1587820876757" class="icon" viewBox="0 0 1024 1024" version="1.1" xmlns="http://www.w3.org/2000/svg" p-id="3149" xmlns:xlink="http://www.w3.org/1999/xlink" width="64" height="64"><defs><style type="text/css"></style></defs><path d="M 511.998 64 c 21 0 38.1 17 38.1 38.1 s -17 38.1 -38.1 38.1 c -205.4 0 -371.9 166.5 -371.9 371.9 s 166.5 371.8 371.9 371.8 s 371.9 -166.5 371.9 -371.9 c 0 -21 17 -38.1 38.1 -38.1 s 38 17.1 38 38.1 c 0 247.4 -200.6 448 -448 448 s -448 -200.6 -448 -448 s 200.6 -448 448 -448 Z m 230.6 190.5 c -14.2 -14.7 -14 -38 0.5 -52.4 c 14.5 -14.5 37.8 -14.6 52.7 -0.2 l 65.6 65.6 c 19.8 19.8 19.8 51.8 0 71.6 l -65.6 65.6 c -14.6 14.6 -38.3 14.6 -52.9 0 c -14.6 -14.6 -14.6 -38.3 0 -52.9 l 11.1 -11.1 h -48.3 c -131.3 0 -175.9 55.9 -175.9 225 c 0 20.7 -16.7 37.4 -37.4 37.4 s -37.4 -16.7 -37.4 -37.4 c 0 -209.1 76.3 -299.8 250.7 -299.8 h 48.3 l -11.4 -11.4 Z" fill="#8dd365" p-id="3150"></path></svg>