<?xml version="1.0" standalone="no"?><!DOCTYPE svg PUBLIC "-//W3C//DTD SVG 1.1//EN" "http://www.w3.org/Graphics/SVG/1.1/DTD/svg11.dtd"><svg t="1587374211763" class="icon" viewBox="0 0 1024 1024" version="1.1" xmlns="http://www.w3.org/2000/svg" p-id="1157" width="64" height="64" xmlns:xlink="http://www.w3.org/1999/xlink"><defs><style type="text/css"></style></defs><path d="M957.91 574.085v318.182c0 35.1-28.538 63.636-63.637 63.636l-763.637-0.298c-35.1 0-63.636-28.537-63.636-63.636V574.085c0-35.1 28.537-63.636 63.636-63.636 35.1 0 63.637 28.537 63.637 63.636v254.546h636.363V574.085c0-35.1 28.537-63.636 63.637-63.636s63.636 28.537 63.636 63.636z" p-id="1158"></path><path d="M475.665 80.307L271.929 288.318c-19.787 20.085-19.39 52.5 0.696 72.188 20.185 19.787 52.5 19.389 72.188-0.696l104.005-118.523v436.207c0.1 31.72 31.222 57.273 62.94 57.273h0.2c31.718-0.1 64.133-25.753 64.133-57.472V241.287L679.4 359.909c19.787 20.085 52.102 20.483 72.187 0.696s20.483-52.102 0.696-72.187L548.648 80.307c-9.645-9.745-22.77-15.412-36.492-15.412-13.721 0-26.846 5.568-36.491 15.412z" p-id="1159"></path></svg>